<?xml version="1.0" standalone="no"?>
<!DOCTYPE svg PUBLIC "-//W3C//DTD SVG 20010904//EN"
 "http://www.w3.org/TR/2001/REC-SVG-20010904/DTD/svg10.dtd">
<svg version="1.0" xmlns="http://www.w3.org/2000/svg"
 width="700.000000pt" height="700.000000pt" viewBox="0 0 700.000000 700.000000"
 preserveAspectRatio="xMidYMid meet">
<metadata>
Created by potrace 1.14, written by Peter Selinger 2001-2017
</metadata>
<g transform="translate(0.000000,700.000000) scale(0.100000,-0.100000)"
fill="#000000" stroke="none">
<path d="M2640 6918 c-1 -46 -1 -347 -1 -670 0 -448 -3 -588 -12 -589 -7 0
-172 -1 -368 -1 l-356 -1 1 -541 1 -541 365 0 365 0 2 -1705 c2 -1885 2 -1888
19 -1980 64 -331 273 -614 570 -767 107 -56 157 -72 304 -103 76 -15 162 -17
831 -18 l746 0 -12 51 c-7 29 -32 131 -55 227 -23 96 -43 182 -45 190 -2 8
-13 53 -25 100 -12 47 -24 96 -27 110 -15 81 -96 396 -103 400 -4 3 -200 5
-434 4 l-426 0 2 1745 3 1746 550 1 c303 1 555 2 562 3 8 1 11 140 11 540 l0
538 -537 1 c-295 0 -548 1 -563 1 l-27 1 0 643 c0 353 0 654 0 670 l-1 27
-670 0 -670 0 0 -82z"/>
</g>
</svg>
